<mxfile host="65bd71144e" pages="1">
    <diagram id="Ex9nssdTxlT7TpCbuSto" name="Page-1">
        <mxGraphModel dx="873" dy="768" grid="1" gridSize="10" guides="1" tooltips="1" connect="1" arrows="1" fold="1" page="1" pageScale="1" pageWidth="827" pageHeight="1169" math="0" shadow="0">
            <root>
                <mxCell id="0"/>
                <mxCell id="1" parent="0"/>
                <mxCell id="rp97ohG0JGLd58k4tToJ-6" style="edgeStyle=orthogonalEdgeStyle;rounded=0;orthogonalLoop=1;jettySize=auto;html=1;exitX=0.25;exitY=1;exitDx=0;exitDy=0;entryX=0.5;entryY=0;entryDx=0;entryDy=0;" parent="1" source="rp97ohG0JGLd58k4tToJ-1" target="rp97ohG0JGLd58k4tToJ-2" edge="1">
                    <mxGeometry relative="1" as="geometry"/>
                </mxCell>
                <mxCell id="rp97ohG0JGLd58k4tToJ-7" style="edgeStyle=orthogonalEdgeStyle;rounded=0;orthogonalLoop=1;jettySize=auto;html=1;exitX=0.75;exitY=1;exitDx=0;exitDy=0;" parent="1" source="rp97ohG0JGLd58k4tToJ-1" target="rp97ohG0JGLd58k4tToJ-3" edge="1">
                    <mxGeometry relative="1" as="geometry"/>
                </mxCell>
                <mxCell id="rp97ohG0JGLd58k4tToJ-1" value="&lt;span style=&quot;background-color: rgb(243 , 243 , 235)&quot;&gt;&lt;font color=&quot;#030303&quot;&gt;// Basic Block 1&lt;br&gt;// Next Line is a random value&lt;br&gt;cur_location = 47530; &lt;br&gt;shared_mem[cur_location ^ prev_location]++;&lt;br&gt;prev_location = cur_location &amp;gt;&amp;gt; 1;&lt;br&gt;//...&lt;/font&gt;&lt;br&gt;&lt;/span&gt;" style="rounded=0;whiteSpace=wrap;html=1;align=left;background-color=rgb(243, 243, 235);fillColor=#f3f3eb;" parent="1" vertex="1">
                    <mxGeometry x="280" y="50" width="280" height="110" as="geometry"/>
                </mxCell>
                <mxCell id="rp97ohG0JGLd58k4tToJ-11" style="edgeStyle=orthogonalEdgeStyle;rounded=0;orthogonalLoop=1;jettySize=auto;html=1;exitX=0.5;exitY=1;exitDx=0;exitDy=0;endArrow=none;endFill=0;" parent="1" source="rp97ohG0JGLd58k4tToJ-2" edge="1">
                    <mxGeometry relative="1" as="geometry">
                        <mxPoint x="420" y="520" as="targetPoint"/>
                        <Array as="points">
                            <mxPoint x="205" y="400"/>
                            <mxPoint x="360" y="400"/>
                            <mxPoint x="360" y="520"/>
                        </Array>
                    </mxGeometry>
                </mxCell>
                <mxCell id="rp97ohG0JGLd58k4tToJ-2" value="&lt;font color=&quot;#030303&quot;&gt;&lt;span style=&quot;background-color: rgb(243 , 243 , 235)&quot;&gt;// Basic Block 2&lt;br&gt;&lt;/span&gt;&lt;span style=&quot;background-color: rgb(243 , 243 , 235)&quot;&gt;// Next Line is a random value&lt;br&gt;&lt;/span&gt;&lt;/font&gt;&lt;span style=&quot;background-color: rgb(243 , 243 , 235)&quot;&gt;&lt;font color=&quot;#030303&quot;&gt;cur_location = 14287; &lt;br&gt;shared_mem[cur_location ^ prev_location]++;&lt;br&gt;prev_location = cur_location &amp;gt;&amp;gt; 1;&lt;br&gt;//...&lt;/font&gt;&lt;br&gt;&lt;/span&gt;" style="rounded=0;whiteSpace=wrap;html=1;align=left;background-color=rgb(243, 243, 235);fillColor=#f3f3eb;" parent="1" vertex="1">
                    <mxGeometry x="70" y="200" width="270" height="100" as="geometry"/>
                </mxCell>
                <mxCell id="rp97ohG0JGLd58k4tToJ-8" style="edgeStyle=orthogonalEdgeStyle;rounded=0;orthogonalLoop=1;jettySize=auto;html=1;exitX=0.5;exitY=1;exitDx=0;exitDy=0;" parent="1" source="rp97ohG0JGLd58k4tToJ-3" target="rp97ohG0JGLd58k4tToJ-4" edge="1">
                    <mxGeometry relative="1" as="geometry"/>
                </mxCell>
                <mxCell id="rp97ohG0JGLd58k4tToJ-3" value="&lt;font color=&quot;#030303&quot;&gt;&lt;span style=&quot;background-color: rgb(243 , 243 , 235)&quot;&gt;// Basic Block 3&lt;br&gt;&lt;/span&gt;&lt;span style=&quot;background-color: rgb(243 , 243 , 235)&quot;&gt;// Next Line is a random value&lt;/span&gt;&lt;/font&gt;&lt;span style=&quot;background-color: rgb(243 , 243 , 235)&quot;&gt;&lt;font color=&quot;#030303&quot;&gt;&lt;br&gt;cur_location = 917; &lt;br&gt;shared_mem[cur_location ^ prev_location]++;&lt;br&gt;prev_location = cur_location &amp;gt;&amp;gt; 1;&lt;br&gt;//...&lt;/font&gt;&lt;br&gt;&lt;/span&gt;" style="rounded=0;whiteSpace=wrap;html=1;align=left;background-color=rgb(243, 243, 235);fillColor=#f3f3eb;" parent="1" vertex="1">
                    <mxGeometry x="380" y="200" width="320" height="110" as="geometry"/>
                </mxCell>
                <mxCell id="rp97ohG0JGLd58k4tToJ-10" style="edgeStyle=orthogonalEdgeStyle;rounded=0;orthogonalLoop=1;jettySize=auto;html=1;exitX=0.25;exitY=1;exitDx=0;exitDy=0;entryX=0.5;entryY=0;entryDx=0;entryDy=0;" parent="1" source="rp97ohG0JGLd58k4tToJ-4" target="rp97ohG0JGLd58k4tToJ-5" edge="1">
                    <mxGeometry relative="1" as="geometry">
                        <Array as="points">
                            <mxPoint x="560" y="500"/>
                            <mxPoint x="560" y="520"/>
                            <mxPoint x="420" y="520"/>
                        </Array>
                    </mxGeometry>
                </mxCell>
                <mxCell id="rp97ohG0JGLd58k4tToJ-12" style="edgeStyle=orthogonalEdgeStyle;rounded=0;orthogonalLoop=1;jettySize=auto;html=1;exitX=0.75;exitY=1;exitDx=0;exitDy=0;entryX=0.75;entryY=0;entryDx=0;entryDy=0;" parent="1" source="rp97ohG0JGLd58k4tToJ-4" target="rp97ohG0JGLd58k4tToJ-3" edge="1">
                    <mxGeometry relative="1" as="geometry">
                        <mxPoint x="800" y="160" as="targetPoint"/>
                        <Array as="points">
                            <mxPoint x="683" y="500"/>
                            <mxPoint x="683" y="520"/>
                            <mxPoint x="720" y="520"/>
                            <mxPoint x="720" y="180"/>
                            <mxPoint x="620" y="180"/>
                        </Array>
                    </mxGeometry>
                </mxCell>
                <mxCell id="rp97ohG0JGLd58k4tToJ-4" value="&lt;font color=&quot;#030303&quot;&gt;&lt;span style=&quot;background-color: rgb(243 , 243 , 235)&quot;&gt;// Basic Block 4&lt;br&gt;&lt;/span&gt;&lt;span style=&quot;background-color: rgb(243 , 243 , 235)&quot;&gt;// Next Line is a random value&lt;/span&gt;&lt;/font&gt;&lt;span style=&quot;background-color: rgb(243 , 243 , 235)&quot;&gt;&lt;font color=&quot;#030303&quot;&gt;&lt;br&gt;cur_location = 5088; &lt;br&gt;shared_mem[cur_location ^ prev_location]++;&lt;br&gt;prev_location = cur_location &amp;gt;&amp;gt; 1;&lt;br&gt;//...&lt;/font&gt;&lt;br&gt;&lt;/span&gt;" style="rounded=0;whiteSpace=wrap;html=1;align=left;background-color=rgb(243, 243, 235);fillColor=#f3f3eb;" parent="1" vertex="1">
                    <mxGeometry x="430" y="400" width="270" height="100" as="geometry"/>
                </mxCell>
                <mxCell id="rp97ohG0JGLd58k4tToJ-5" value="&lt;font color=&quot;#030303&quot;&gt;&lt;span style=&quot;background-color: rgb(243 , 243 , 235)&quot;&gt;// Basic Block 5&lt;br&gt;&lt;/span&gt;&lt;span style=&quot;background-color: rgb(243 , 243 , 235)&quot;&gt;// Next Line is a random value&lt;/span&gt;&lt;/font&gt;&lt;span style=&quot;background-color: rgb(243 , 243 , 235)&quot;&gt;&lt;font color=&quot;#030303&quot;&gt;&lt;br&gt;cur_location = 21689; &lt;br&gt;shared_mem[cur_location ^ prev_location]++;&lt;br&gt;prev_location = cur_location &amp;gt;&amp;gt; 1;&lt;br&gt;//...&lt;/font&gt;&lt;br&gt;&lt;/span&gt;" style="rounded=0;whiteSpace=wrap;html=1;align=left;background-color=rgb(243, 243, 235);fillColor=#f3f3eb;" parent="1" vertex="1">
                    <mxGeometry x="285" y="540" width="270" height="100" as="geometry"/>
                </mxCell>
            </root>
        </mxGraphModel>
    </diagram>
</mxfile>